<?xml version="1.0" standalone="no"?>
<!DOCTYPE svg PUBLIC "-//W3C//DTD SVG 20010904//EN"
 "http://www.w3.org/TR/2001/REC-SVG-20010904/DTD/svg10.dtd">
<svg version="1.0" xmlns="http://www.w3.org/2000/svg"
 width="628.000000pt" height="628.000000pt" viewBox="0 0 628.000000 628.000000"
 preserveAspectRatio="xMidYMid meet">
<metadata>
Created by potrace 1.14, written by Peter Selinger 2001-2017
</metadata>
<g transform="translate(0.000000,628.000000) scale(0.100000,-0.100000)"
fill="#000000" stroke="none">
<path d="M0 3159 c0 -2065 3 -3118 10 -3114 6 3 10 -1 10 -10 0 -9 -4 -13 -10
-10 -5 3 -10 -1 -10 -9 0 -14 307 -16 3140 -16 l3140 0 0 3140 0 3140 -3140 0
-3140 0 0 -3121z m3916 2832 c101 -46 111 -161 23 -272 l-31 -39 71 -89 c39
-49 87 -103 105 -119 45 -39 98 -57 126 -42 19 10 20 19 20 236 l0 225 -32 14
c-30 13 -21 14 117 17 83 2 151 3 152 3 1 0 -2 -23 -6 -50 -5 -28 -9 -42 -10
-33 -2 33 -30 48 -92 48 l-59 0 0 -95 0 -95 61 0 c33 0 69 5 80 11 19 10 20 8
13 -43 -7 -56 -14 -76 -14 -39 0 26 -34 41 -96 41 l-44 0 0 -99 c0 -121 7
-131 85 -131 55 0 85 16 85 46 0 8 5 14 11 14 6 0 8 -7 5 -16 -3 -9 -6 -29 -6
-45 l0 -29 -201 0 c-161 0 -208 3 -234 15 -20 10 -62 56 -115 125 -74 99 -86
110 -114 110 -17 0 -41 3 -53 6 -23 6 -23 6 -23 -102 0 -60 4 -114 8 -120 4
-6 21 -16 37 -22 25 -9 11 -10 -75 -10 -85 0 -100 2 -78 11 37 14 40 40 36
322 l-3 230 -35 17 c-35 18 -35 18 105 18 115 0 147 -4 181 -19z m1417 -76
c14 -6 17 -19 17 -71 0 -36 -4 -64 -10 -64 -5 0 -10 11 -10 25 0 73 -143 119
-262 83 -146 -43 -171 -274 -42 -388 53 -46 99 -63 176 -63 77 0 114 18 131
64 12 31 32 41 24 12 -3 -10 -8 -35 -12 -55 -5 -34 -10 -39 -48 -49 -62 -17
-212 -7 -267 18 -99 44 -149 114 -158 219 -10 131 55 229 181 270 43 14 243
13 280 -1z m-583 -8 l-25 -13 -3 -199 c-4 -247 -2 -259 41 -273 27 -8 16 -10
-68 -11 -87 -1 -97 1 -75 12 l25 13 3 231 2 231 -27 10 c-23 8 -11 11 62 11
79 1 87 -1 65 -12z m860 0 c-24 -12 -25 -18 -28 -105 l-3 -92 151 0 150 0 0
83 c0 90 -4 101 -40 116 -19 7 -2 10 70 10 75 -1 89 -3 68 -11 l-28 -10 0
-229 0 -230 33 -14 c30 -14 27 -14 -63 -14 -73 0 -90 3 -73 11 28 14 33 34 33
156 l0 102 -150 0 -150 0 0 -102 c0 -130 4 -143 43 -156 27 -8 15 -10 -68 -11
-87 -1 -97 1 -75 12 l25 13 3 227 2 228 -32 14 c-32 14 -29 14 62 14 83 1 92
-1 70 -12z m-5461 -343 c79 -19 89 -27 57 -42 -19 -9 -32 -6 -72 14 -50 25
-75 44 -59 44 5 0 38 -7 74 -16z m-4 -74 c-3 -5 -10 -10 -16 -10 -5 0 -9 5 -9
10 0 6 7 10 16 10 8 0 12 -4 9 -10z m-13 -14 c10 -1 21 -6 25 -11 5 -4 2 -5
-4 -1 -7 4 -13 3 -13 -2 0 -12 45 -8 80 6 28 11 40 7 40 -14 0 -19 17 -18 28
3 9 15 11 14 23 -4 7 -12 19 -19 26 -16 7 3 13 -1 13 -8 0 -8 6 -5 15 7 14 18
14 17 11 -14 -3 -27 -1 -30 11 -20 11 9 16 9 24 -3 5 -8 9 -20 9 -27 0 -8 6
-12 13 -9 6 2 11 12 11 21 -1 9 2 16 6 16 7 0 16 -19 37 -75 3 -5 -2 -2 -10 7
-8 10 -17 15 -20 11 -4 -3 3 -14 14 -24 l21 -18 -20 -33 c-21 -33 -69 -82
-107 -108 -11 -7 -8 -1 8 14 26 26 26 28 10 44 -42 41 -169 102 -215 102 -16
0 -68 57 -68 75 0 8 -7 18 -15 21 -8 4 -12 10 -9 16 3 5 13 7 22 3 14 -5 14
-3 -1 13 -23 25 -22 46 1 37 9 -4 25 -8 34 -9z m87 -220 c45 -5 61 -12 61 -27
0 -16 -83 -10 -143 11 -31 11 -66 20 -77 20 -31 0 -23 18 13 28 24 7 41 5 68
-9 20 -10 55 -20 78 -23z m1582 -131 c16 -35 29 -71 29 -79 0 -10 18 -16 63
-21 125 -14 394 -74 484 -107 141 -53 243 -119 353 -228 88 -87 98 -100 114
-158 27 -97 29 -180 12 -412 -8 -118 -18 -282 -22 -365 -3 -82 -11 -156 -16
-162 -7 -9 -7 -13 -1 -13 7 0 7 -15 1 -42 -5 -24 -10 -51 -12 -60 -1 -10 -5
-21 -9 -24 -4 -4 -7 -14 -7 -22 0 -9 -8 -24 -17 -35 -10 -11 -12 -17 -5 -13
15 9 16 -10 1 -19 -6 -4 -8 -13 -5 -21 3 -8 -1 -14 -9 -14 -16 0 -18 -7 -17
-53 0 -15 -4 -25 -9 -22 -5 4 -9 -1 -9 -10 0 -12 -6 -15 -22 -10 -16 4 -19 3
-10 -3 11 -7 6 -17 -21 -43 -19 -19 -37 -38 -38 -44 -2 -5 -7 -9 -11 -7 -5 1
-8 -7 -8 -17 0 -11 -5 -23 -12 -27 -7 -4 -8 -3 -4 4 4 8 2 10 -8 6 -8 -3 -12
-12 -9 -20 3 -9 -2 -14 -13 -14 -16 0 -17 -2 -4 -10 13 -8 12 -10 -4 -10 -12
0 -16 -5 -13 -14 4 -10 1 -13 -8 -10 -10 4 -12 -1 -8 -18 4 -19 3 -20 -7 -8
-10 12 -11 11 -7 -7 4 -16 0 -23 -10 -23 -13 0 -13 -2 -2 -17 10 -11 10 -14 2
-9 -8 4 -13 1 -13 -8 0 -9 -5 -16 -11 -16 -5 0 -7 -4 -4 -10 3 -5 1 -10 -5
-10 -6 0 -8 -5 -5 -11 4 -6 -2 -17 -13 -24 -12 -9 -18 -23 -17 -40 2 -17 -1
-25 -10 -23 -7 2 -28 -14 -48 -35 -19 -21 -41 -39 -48 -40 -8 -2 -21 -6 -29
-11 -12 -7 -13 -6 -2 5 19 21 14 29 -12 18 -16 -8 -23 -17 -19 -28 4 -11 1
-10 -10 4 -15 18 -19 18 -16 -1 2 -17 -27 -22 -43 -7 -19 17 -25 5 -8 -15 7
-9 7 -9 -2 -2 -17 14 -25 13 -48 -12 l-20 -22 0 25 c0 18 -2 21 -9 9 -6 -8 -7
-18 -5 -22 3 -5 -6 -6 -19 -3 -16 4 -35 0 -52 -11 -26 -17 -28 -17 -37 0 -8
13 -13 15 -24 5 -11 -9 -14 -8 -14 2 0 11 -2 11 -8 2 -4 -7 -19 -10 -34 -8
-15 3 -29 1 -33 -5 -4 -6 1 -7 12 -3 23 8 15 -1 -14 -16 -20 -10 -22 -9 -16 6
3 10 2 14 -2 10 -5 -4 -15 3 -22 15 -11 20 -12 20 -13 4 0 -13 -5 -16 -17 -12
-17 6 -17 5 -1 -7 15 -12 13 -13 -17 -13 -26 1 -31 4 -23 14 8 9 7 11 -6 6 -9
-3 -16 -11 -16 -17 0 -6 -3 -8 -6 -5 -3 4 -1 16 6 27 6 12 7 21 1 21 -5 0 -18
-17 -28 -37 -38 -73 -68 -123 -74 -123 -3 0 23 56 57 125 82 163 90 205 74
360 -25 250 -58 473 -74 503 -24 47 -105 111 -182 143 -38 17 -77 34 -86 39
-10 6 -27 10 -37 10 -11 0 -23 5 -26 10 -12 19 -30 10 -31 -15 -2 -21 1 -24
12 -14 12 10 13 9 8 -6 -5 -12 -15 -16 -35 -13 -15 3 -26 1 -23 -4 3 -4 15 -8
27 -9 22 0 22 0 -1 -10 -13 -5 -20 -13 -17 -19 9 -15 -8 -12 -33 6 -12 8 -22
11 -22 6 0 -6 7 -12 15 -16 8 -3 15 -10 15 -16 0 -6 -12 -3 -27 6 -22 13 -24
13 -9 1 10 -9 15 -20 12 -26 -4 -6 9 -4 29 4 19 9 35 11 35 6 0 -5 -13 -14
-29 -21 -29 -12 -47 -45 -30 -56 5 -3 9 -10 9 -16 0 -6 -9 -3 -20 7 -17 16
-20 16 -20 2 0 -8 6 -18 13 -20 7 -3 5 -6 -5 -6 -18 -1 -24 -16 -10 -24 4 -2
2 -3 -4 -1 -6 1 -11 -11 -11 -27 0 -38 -2 -39 -46 -32 -23 3 -42 14 -48 26 -6
10 -7 17 -2 14 4 -2 17 5 28 16 17 17 17 19 3 14 -10 -3 -20 -2 -23 3 -3 5 4
11 14 15 12 4 18 12 14 21 -3 9 1 14 12 14 15 0 16 2 4 17 -12 15 -12 16 4 10
9 -4 17 -2 17 4 0 6 7 9 15 5 18 -7 20 10 3 17 -10 4 -9 8 2 16 8 5 12 13 8
16 -3 4 3 16 14 27 17 17 24 19 39 9 11 -6 19 -9 19 -5 0 9 -33 39 -39 36 -3
-2 -7 1 -9 6 -1 5 11 8 27 7 21 -1 28 2 24 12 -3 7 0 13 6 13 6 0 11 -10 11
-22 0 -18 2 -20 9 -9 17 26 1 41 -46 41 -24 0 -53 -5 -63 -10 -29 -16 -164
-202 -233 -322 -48 -83 -34 -142 94 -406 90 -188 166 -369 157 -378 -6 -6 -56
13 -110 42 -14 8 -33 14 -41 14 -9 0 -17 5 -19 12 -2 6 -10 8 -16 4 -16 -10
-15 -26 2 -26 8 0 16 -7 20 -15 3 -8 12 -15 20 -15 8 0 16 -6 19 -12 6 -20 -3
-37 -18 -32 -7 3 -16 0 -21 -7 -4 -8 -3 -10 4 -5 8 5 12 0 12 -13 0 -12 5 -21
11 -21 6 0 9 7 6 15 -4 8 -2 17 2 19 16 10 20 -7 7 -33 -7 -14 -12 -36 -10
-48 4 -22 3 -22 -14 -5 -16 15 -16 18 -2 29 13 11 13 12 0 13 -8 0 -22 -5 -30
-10 -13 -9 -13 -12 2 -23 16 -12 17 -21 9 -81 0 -5 -12 1 -26 14 -14 13 -23
30 -21 37 3 7 -2 13 -12 14 -11 0 -12 2 -4 6 18 7 42 -15 35 -33 -3 -8 -1 -14
5 -14 5 0 12 9 15 21 3 12 3 18 0 15 -3 -3 -14 5 -23 17 -13 16 -15 24 -7 29
9 6 8 11 -3 18 -20 13 -4 13 22 -1 19 -10 20 -8 15 25 -3 20 -1 36 5 36 5 0 6
5 2 11 -5 8 -9 8 -14 -1 -6 -9 -11 -7 -19 9 -10 18 -9 21 6 22 14 0 12 3 -6
10 -20 8 -21 12 -11 25 10 11 10 18 2 26 -7 7 -12 8 -12 3 0 -5 -7 0 -15 11
-13 17 -16 17 -26 4 -9 -13 -10 -13 -6 2 4 12 -11 29 -50 58 -113 86 -183 185
-200 285 -5 30 -4 177 4 365 7 173 15 461 18 640 8 426 14 483 54 565 60 122
143 199 294 275 156 79 358 130 514 130 l61 0 18 56 c19 62 48 104 70 104 9 0
28 -27 45 -65z m3909 -140 c0 -130 -4 -205 -10 -205 -6 0 -10 75 -10 205 0
130 4 205 10 205 6 0 10 -75 10 -205z m-1932 7 l65 -173 62 158 c34 87 64 166
68 176 4 9 13 17 20 17 11 0 16 -26 21 -112 4 -62 9 -150 13 -195 4 -58 2 -83
-6 -83 -6 0 -11 12 -12 28 0 15 -2 38 -4 52 -5 35 -15 187 -15 235 -1 37 -4
32 -39 -60 -21 -55 -52 -133 -68 -174 -15 -41 -33 -76 -39 -78 -6 -2 -26 36
-44 84 -18 48 -47 129 -66 178 l-33 90 -1 -75 c-1 -41 -3 -86 -5 -100 -2 -14
-6 -58 -9 -98 -4 -71 -10 -91 -21 -80 -6 6 11 297 21 356 3 18 10 32 16 30 6
-2 40 -82 76 -176z m1567 148 c0 -8 -8 -16 -17 -18 -13 -2 -18 3 -18 18 0 15
5 20 18 18 9 -2 17 -10 17 -18z m-5005 5 c0 -3 -27 -18 -60 -35 -33 -17 -60
-28 -60 -25 0 2 26 18 58 34 64 34 62 33 62 26z m3931 -103 c24 -21 32 -38 36
-75 l6 -47 -107 0 c-117 0 -118 -1 -92 -65 22 -51 56 -69 121 -62 30 3 55 2
55 -3 0 -13 -28 -20 -79 -20 -79 0 -131 59 -131 147 0 48 31 115 61 137 37 26
93 21 130 -12z m286 4 l28 -24 28 24 c36 31 78 31 114 0 27 -24 28 -27 31
-145 2 -76 0 -121 -6 -121 -6 0 -12 47 -14 114 -3 124 -16 156 -64 156 -66 0
-84 -37 -84 -170 0 -55 -4 -100 -9 -100 -5 0 -11 51 -13 114 -2 95 -6 117 -22
135 -25 28 -68 27 -103 -3 -27 -23 -28 -28 -31 -135 -2 -61 -8 -111 -13 -111
-5 0 -9 62 -9 140 0 87 4 140 10 140 6 0 10 -7 10 -16 0 -13 5 -12 26 5 36 28
85 27 121 -3z m488 -6 c67 -63 52 -215 -24 -254 -58 -30 -131 -13 -165 38 -44
68 -24 189 38 227 42 27 117 21 151 -11z m225 21 c0 -5 -14 -11 -30 -15 -45
-8 -60 -53 -60 -171 0 -57 -4 -95 -10 -95 -6 0 -10 53 -10 140 0 87 4 140 10
140 6 0 10 -7 10 -16 0 -13 5 -12 26 5 27 21 64 28 64 12z m289 -1 c10 -5 22
-17 27 -27 9 -21 22 -253 14 -253 -4 0 -11 5 -17 11 -8 8 -17 7 -34 -5 -52
-36 -139 -2 -139 54 0 59 41 92 128 105 46 7 52 22 30 70 -17 37 -63 45 -120
20 -11 -4 -18 -3 -18 4 0 26 93 41 129 21z m355 4 c32 -12 15 -23 -27 -18 -34
5 -45 2 -61 -15 -27 -30 -15 -65 31 -86 61 -28 83 -54 83 -96 0 -46 -36 -79
-87 -79 -40 0 -76 17 -68 31 4 6 13 5 25 -1 45 -24 110 0 110 41 0 33 -12 50
-52 70 -79 40 -97 82 -57 133 20 26 65 35 103 20z m-574 -144 c0 -87 -4 -140
-10 -140 -6 0 -10 53 -10 140 0 87 4 140 10 140 6 0 10 -53 10 -140z m-4930
-310 c0 -5 -5 -10 -11 -10 -5 0 -7 5 -4 10 3 6 8 10 11 10 2 0 4 -4 4 -10z
m3758 -330 c-14 -22 -29 -27 -25 -7 2 10 17 22 35 26 1 1 -3 -8 -10 -19z m143
6 c-12 -15 -56 -15 -69 -1 -4 5 1 5 11 2 9 -4 17 -2 17 3 0 6 12 10 26 10 22
0 24 -3 15 -14z m69 -6 c0 -13 -11 -13 -30 0 -12 8 -11 10 8 10 12 0 22 -4 22
-10z m-254 -20 c0 -11 -4 -20 -8 -20 -4 0 -8 5 -8 12 0 9 -3 9 -11 1 -9 -9 -7
-16 6 -30 13 -13 20 -14 23 -5 2 7 8 10 12 7 11 -7 2 -35 -11 -35 -4 0 -17 9
-27 20 -18 20 -19 20 -36 1 -15 -16 -15 -20 -3 -28 8 -4 12 -15 8 -25 -4 -13
-10 -15 -21 -7 -12 8 -12 12 -2 16 10 4 10 8 1 20 -10 12 -5 21 29 54 23 21
43 39 45 39 1 0 3 -9 3 -20z m100 5 c4 -8 10 -12 15 -9 5 3 8 0 7 -8 -2 -8 7
-13 25 -12 22 1 25 -1 16 -13 -7 -7 -14 -11 -17 -8 -9 9 -42 -27 -36 -39 3 -6
-3 -1 -13 12 -12 15 -25 21 -35 17 -11 -4 -20 1 -27 14 -16 28 -14 34 10 28
32 -8 52 2 38 19 -9 11 -9 14 0 14 6 0 14 -7 17 -15z m279 -5 c3 -5 1 -10 -4
-10 -6 0 -11 5 -11 10 0 6 2 10 4 10 3 0 8 -4 11 -10z m-168 -52 c4 -7 9 -22
10 -33 3 -19 2 -19 -8 -2 -9 15 -13 16 -26 5 -9 -7 -24 -13 -33 -13 -9 0 -25
-7 -35 -15 -17 -14 -17 -13 -7 5 6 11 13 28 16 37 3 11 12 15 24 11 11 -2 23
0 26 6 9 15 23 14 33 -1z m-132 -18 c3 -5 1 -10 -4 -10 -6 0 -11 5 -11 10 0 6
2 10 4 10 3 0 8 -4 11 -10z m-175 -9 c0 -5 -7 -12 -16 -15 -14 -5 -15 -4 -4 9
14 17 20 19 20 6z m80 -5 c0 -3 -4 -8 -10 -11 -5 -3 -10 -1 -10 4 0 6 5 11 10
11 6 0 10 -2 10 -4z m30 -16 c0 -5 -5 -10 -11 -10 -5 0 -7 5 -4 10 3 6 8 10
11 10 2 0 4 -4 4 -10z m60 -21 c0 -5 -4 -9 -8 -9 -5 0 -9 7 -9 15 0 8 4 12 9
9 4 -3 8 -9 8 -15z m-200 7 c0 -2 -8 -10 -17 -17 -16 -13 -17 -12 -4 4 13 16
21 21 21 13z m170 0 c0 -3 -4 -8 -10 -11 -5 -3 -10 -1 -10 4 0 6 5 11 10 11 6
0 10 -2 10 -4z m178 -55 c2 -6 9 -11 17 -11 7 0 18 -7 26 -16 8 -9 -7 -5 -35
11 -43 24 -54 26 -109 20 -42 -5 -74 -15 -97 -32 l-35 -25 33 31 c30 29 48 36
81 32 7 -2 11 2 7 7 -3 5 19 5 52 1 31 -4 58 -13 60 -18z m-399 -18 c-34 -57
-49 -78 -49 -70 0 4 7 19 15 32 8 14 22 36 30 50 9 14 18 25 21 25 3 0 -5 -17
-17 -37z m-2639 -523 c0 -5 -2 -10 -4 -10 -3 0 -8 5 -11 10 -3 6 -1 10 4 10 6
0 11 -4 11 -10z m75 -220 c48 -21 117 -60 156 -85 67 -45 82 -68 59 -91 -6 -6
-39 -58 -73 -117 l-63 -107 -16 38 c-9 20 -46 114 -83 207 -36 94 -68 176 -71
183 -9 18 -3 16 91 -28z m1380 -20 c-3 -5 -12 -10 -18 -10 -7 0 -6 4 3 10 19
12 23 12 15 0z m715 -145 c0 -8 -4 -15 -10 -15 -5 0 -7 7 -4 15 4 8 8 15 10
15 2 0 4 -7 4 -15z m-1773 -227 c-3 -7 -5 -2 -5 12 0 14 2 19 5 13 2 -7 2 -19
0 -25z m-20 -70 c-3 -7 -5 -2 -5 12 0 14 2 19 5 13 2 -7 2 -19 0 -25z m-20
-70 c-3 -7 -5 -2 -5 12 0 14 2 19 5 13 2 -7 2 -19 0 -25z m0 -50 c-3 -7 -5 -2
-5 12 0 14 2 19 5 13 2 -7 2 -19 0 -25z m-20 -45 c-3 -10 -5 -4 -5 12 0 17 2
24 5 18 2 -7 2 -21 0 -30z m-809 -180 c74 -73 167 -137 184 -127 7 4 8 3 4 -4
-4 -7 10 -20 35 -33 l42 -21 18 23 c10 13 19 19 19 12 0 -6 -4 -14 -9 -17 -8
-5 -75 -124 -186 -331 -21 -38 -87 -166 -147 -284 -59 -118 -108 -205 -108
-193 0 11 4 23 8 26 5 3 8 85 7 183 -1 98 2 186 7 195 4 9 4 19 -1 23 -6 3
-10 160 -10 378 l-1 372 37 -70 c23 -42 63 -94 101 -132z m1342 147 c8 -5 11
-10 5 -10 -5 0 -17 5 -25 10 -8 5 -10 10 -5 10 6 0 17 -5 25 -10z m-110 -20
c0 -5 -2 -10 -4 -10 -3 0 -8 5 -11 10 -3 6 -1 10 4 10 6 0 11 -4 11 -10z
m-110 -9 c0 -5 -7 -12 -16 -15 -14 -5 -15 -4 -4 9 14 17 20 19 20 6z m145 -1
c3 -5 1 -10 -4 -10 -6 0 -11 5 -11 10 0 6 2 10 4 10 3 0 8 -4 11 -10z m-955
-44 c0 -5 -7 -3 -15 4 -8 7 -12 17 -9 22 7 10 24 -9 24 -26z m1875 -26 c9 -32
2 -25 -20 20 -13 27 -14 32 -2 20 8 -8 18 -26 22 -40z m-1991 21 c10 -11 16
-25 14 -32 -2 -7 -14 1 -27 19 -24 35 -15 44 13 13z m101 -11 c3 -5 1 -10 -4
-10 -6 0 -11 5 -11 10 0 6 2 10 4 10 3 0 8 -4 11 -10z m80 0 c3 -5 1 -10 -4
-10 -6 0 -11 5 -11 10 0 6 2 10 4 10 3 0 8 -4 11 -10z m45 -4 c0 -3 -4 -8 -10
-11 -5 -3 -10 -1 -10 4 0 6 5 11 10 11 6 0 10 -2 10 -4z m-250 -20 c0 -2 -7
-7 -16 -10 -8 -3 -12 -2 -9 4 6 10 25 14 25 6z m1257 -2 c-3 -3 -12 -4 -19 -1
-8 3 -5 6 6 6 11 1 17 -2 13 -5z m-50 -10 c-3 -3 -12 -4 -19 -1 -8 3 -5 6 6 6
11 1 17 -2 13 -5z m-49 -11 c-10 -2 -26 -2 -35 0 -10 3 -2 5 17 5 19 0 27 -2
18 -5z m-465 -10 c-7 -2 -19 -2 -25 0 -7 3 -2 5 12 5 14 0 19 -2 13 -5z m375
0 c-10 -2 -28 -2 -40 0 -13 2 -5 4 17 4 22 1 32 -1 23 -4z m-919 -25 c-5 -10
-15 -18 -22 -18 -7 0 -6 4 3 10 14 9 7 14 -13 11 -5 -1 -6 3 -3 8 4 5 15 9 25
8 16 -1 17 -5 10 -19z m754 15 c-18 -2 -48 -2 -65 0 -18 2 -4 4 32 4 36 0 50
-2 33 -4z m70 0 c-7 -2 -19 -2 -25 0 -7 3 -2 5 12 5 14 0 19 -2 13 -5z m1117
-78 c0 -11 -14 7 -31 40 -7 13 -3 12 10 -5 11 -14 21 -29 21 -35z m-1998 3 c4
-10 10 -10 31 -1 15 7 27 10 27 7 0 -8 -72 -36 -78 -30 -3 3 0 6 8 6 10 0 10
3 0 15 -8 9 -8 15 -2 15 6 0 12 -6 14 -12z m428 -18 c0 -5 -5 -10 -11 -10 -5
0 -7 5 -4 10 3 6 8 10 11 10 2 0 4 -4 4 -10z m-380 -19 c0 -6 -9 -9 -19 -8
-11 0 -17 5 -15 9 7 11 34 10 34 -1z m1967 -23 c-3 -8 -6 -5 -6 6 -1 11 2 17
5 13 3 -3 4 -12 1 -19z m5 -36 c3 -9 1 -26 -3 -37 -6 -15 -8 -11 -8 18 -1 40
4 48 11 19z m270 -12 c3 -16 1 -30 -3 -30 -4 0 -9 14 -11 30 -3 17 -1 30 3 30
4 0 9 -13 11 -30z m-1802 -35 c14 -19 14 -19 -2 -6 -10 7 -18 18 -18 24 0 6 1
8 3 6 1 -2 9 -13 17 -24z m1140 -9 c0 -2 -8 -10 -17 -17 -16 -13 -17 -12 -4 4
13 16 21 21 21 13z m-1280 -10 c0 -3 -4 -8 -10 -11 -5 -3 -10 -1 -10 4 0 6 5
11 10 11 6 0 10 -2 10 -4z m1657 -24 c-10 -10 -17 -25 -17 -33 0 -8 -8 -23
-16 -34 -16 -19 -16 -19 -9 5 10 34 46 92 53 86 3 -3 -2 -14 -11 -24z m306
-55 c3 -25 8 -51 12 -59 7 -11 5 -11 -6 0 -7 7 -14 26 -15 42 -1 16 -4 46 -8
67 -4 27 -3 32 3 17 5 -12 11 -42 14 -67z m-1882 36 c13 -16 12 -17 -3 -4 -10
7 -18 15 -18 17 0 8 8 3 21 -13z m33 -49 c4 -10 2 -13 -6 -8 -8 5 -9 1 -4 -12
5 -14 4 -16 -4 -8 -6 6 -8 18 -4 27 8 21 10 21 18 1z m162 9 c-15 -4 -17 -11
-12 -41 32 -181 45 -237 56 -240 10 -4 10 -6 0 -12 -7 -4 -9 -13 -5 -19 5 -9
10 -9 21 0 8 6 17 9 21 5 3 -3 1 -6 -5 -6 -7 0 -12 -7 -12 -16 0 -14 3 -14 15
-4 12 10 15 9 15 -4 0 -9 7 -19 16 -23 8 -3 13 -12 10 -20 -4 -8 -1 -11 5 -7
7 4 10 -3 8 -17 -2 -28 10 -61 20 -54 4 2 7 -6 6 -18 -1 -12 2 -32 6 -44 5
-13 5 -23 0 -23 -4 0 -7 -23 -7 -50 1 -32 5 -49 12 -46 6 2 3 -12 -7 -32 -10
-19 -16 -38 -12 -41 3 -3 8 0 10 7 3 6 9 12 15 12 6 0 6 -6 -2 -15 -6 -8 -9
-19 -5 -25 3 -5 -1 -10 -9 -10 -9 0 -16 -7 -16 -15 0 -8 6 -15 13 -15 8 0 7
-4 -3 -11 -12 -9 -13 -12 -1 -16 11 -4 11 -7 0 -13 -14 -9 -22 -40 -9 -40 11
0 7 -33 -5 -42 -6 -5 -4 -12 5 -18 10 -6 11 -10 3 -10 -9 0 -10 -7 -3 -25 7
-19 6 -27 -8 -35 -13 -7 -14 -12 -5 -18 9 -6 10 -17 3 -42 -5 -18 -8 -36 -5
-38 2 -2 -7 -14 -21 -27 -13 -12 -24 -32 -24 -43 0 -11 -4 -24 -10 -27 -6 -4
-8 30 -5 89 5 104 -10 434 -25 561 -34 289 -38 317 -59 438 l-17 97 25 -1 c19
-1 21 -3 7 -6z m61 1 c-3 -3 -12 -4 -19 -1 -8 3 -5 6 6 6 11 1 17 -2 13 -5z
m266 -1 c-7 -2 -21 -2 -30 0 -10 3 -4 5 12 5 17 0 24 -2 18 -5z m-443 -38 c14
-19 14 -19 -2 -6 -10 7 -18 18 -18 24 0 6 1 8 3 6 1 -2 9 -13 17 -24z m1016
-5 c0 -10 -2 -17 -5 -15 -8 8 -31 -17 -25 -27 3 -5 -2 -20 -11 -34 -15 -24
-15 -24 4 -12 11 6 17 16 15 20 -3 4 0 8 5 8 15 0 7 -40 -10 -51 -8 -5 -9 -9
-4 -9 6 0 3 -5 -5 -10 -10 -7 -11 -10 -2 -11 27 -3 31 -4 39 -13 4 -5 3 -6 -4
-2 -12 7 -30 -31 -19 -41 3 -4 6 0 6 8 0 12 2 12 9 0 6 -9 6 -22 -1 -34 -7
-13 -7 -22 1 -30 19 -19 11 -87 -11 -87 -7 0 -7 4 0 13 15 18 12 68 -5 74 -8
3 -12 11 -9 18 2 6 0 18 -6 26 -8 12 -9 12 -5 -1 2 -8 0 -23 -5 -33 -7 -13 -5
-24 6 -36 17 -19 17 -84 0 -77 -12 5 -12 -23 1 -43 6 -11 4 -13 -8 -8 -9 3
-17 1 -19 -5 -6 -17 -28 1 -28 22 0 14 -5 18 -16 13 -12 -4 -13 -8 -3 -13 7
-5 13 -22 14 -39 2 -27 0 -29 -17 -20 -17 9 -18 8 -9 -9 12 -23 3 -36 -14 -19
-7 8 -11 36 -9 75 2 36 -1 60 -6 57 -5 -3 -8 -64 -7 -135 2 -139 -7 -171 -18
-64 -15 134 25 367 72 425 7 8 13 19 13 23 0 9 60 87 80 103 8 7 15 13 15 13
1 0 1 -9 1 -20z m-995 -27 c-12 -20 -14 -14 -5 12 4 9 9 14 11 11 3 -2 0 -13
-6 -23z m1789 -18 c14 -19 14 -19 -2 -6 -10 7 -18 18 -18 24 0 6 1 8 3 6 1 -2
9 -13 17 -24z m-1991 -155 c36 -170 51 -261 67 -394 16 -138 28 -536 17 -600
l-6 -37 -41 6 c-161 26 -378 107 -490 185 -72 50 -74 53 -64 78 6 15 60 126
119 247 105 214 161 320 297 554 75 131 65 135 101 -39z m-89 136 c0 -3 -4 -8
-10 -11 -5 -3 -10 -1 -10 4 0 6 5 11 10 11 6 0 10 -2 10 -4z m310 -17 c0 8 2
12 5 9 3 -3 2 -13 -1 -22 -5 -14 -9 -15 -15 -4 -5 7 -9 18 -9 23 0 6 5 3 10
-5 8 -12 10 -12 10 -1z m-56 -45 c3 -8 2 -12 -4 -9 -6 3 -10 10 -10 16 0 14 7
11 14 -7z m27 -41 c-12 -20 -14 -14 -5 12 4 9 9 14 11 11 3 -2 0 -13 -6 -23z
m1848 -48 l0 -20 -9 20 c-5 11 -9 27 -9 35 -1 13 0 13 9 0 5 -8 9 -24 9 -35z
m-1909 15 c6 -11 8 -20 6 -20 -3 0 -10 9 -16 20 -6 11 -8 20 -6 20 3 0 10 -9
16 -20z m147 -12 c-3 -8 -6 -5 -6 6 -1 11 2 17 5 13 3 -3 4 -12 1 -19z m-456
-11 c-10 -9 -11 -8 -5 6 3 10 9 15 12 12 3 -3 0 -11 -7 -18z m1409 -37 c0 -15
-5 -12 -26 11 -19 22 -19 22 4 10 12 -6 22 -16 22 -21z m-979 -3 c-10 -9 -11
-8 -5 6 3 10 9 15 12 12 3 -3 0 -11 -7 -18z m-97 -13 c9 -24 2 -26 -12 -4 -7
11 -8 20 -3 20 5 0 12 -7 15 -16z m57 -7 c-10 -9 -11 -8 -5 6 3 10 9 15 12 12
3 -3 0 -11 -7 -18z m1858 -70 c1 -5 -3 -5 -9 -2 -5 3 -10 16 -9 28 0 21 1 21
9 2 5 -11 9 -24 9 -28z m-1869 12 c0 8 2 12 5 9 3 -3 2 -13 -1 -22 -5 -14 -9
-15 -15 -4 -5 7 -9 18 -9 23 0 6 5 3 10 -5 8 -12 10 -12 10 -1z m1021 -26 c13
-17 13 -17 -6 -3 -11 8 -22 16 -24 17 -2 2 0 3 6 3 6 0 17 -8 24 -17z m-981
-28 c0 -5 -5 -3 -10 5 -5 8 -10 20 -10 25 0 6 5 3 10 -5 5 -8 10 -19 10 -25z
m944 10 c-4 -8 -11 -12 -16 -9 -6 4 -5 10 3 15 19 12 19 11 13 -6z m894 -16
c-3 -8 -7 -3 -11 10 -4 17 -3 21 5 13 5 -5 8 -16 6 -23z m-1618 11 c0 -5 -2
-10 -4 -10 -3 0 -8 5 -11 10 -3 6 -1 10 4 10 6 0 11 -4 11 -10z m-241 -54 c-3
-3 -11 5 -18 17 -13 21 -12 21 5 5 10 -10 16 -20 13 -22z m101 14 c0 -5 -2
-10 -4 -10 -3 0 -8 5 -11 10 -3 6 -1 10 4 10 6 0 11 -4 11 -10z m805 -10 c3
-6 -1 -7 -9 -4 -18 7 -21 14 -7 14 6 0 13 -4 16 -10z m32 -20 c-1 -11 -4 -20
-8 -20 -4 0 -6 11 -5 24 0 13 4 22 8 20 4 -2 6 -13 5 -24z m-77 -55 c-7 -8
-16 -15 -21 -15 -5 0 -1 9 8 20 9 11 19 17 21 15 3 -3 -1 -11 -8 -20z m-862
-30 c-3 -3 -9 2 -12 12 -6 14 -5 15 5 6 7 -7 10 -15 7 -18z m877 -15 c3 -5 1
-10 -4 -10 -6 0 -11 5 -11 10 0 6 2 10 4 10 3 0 8 -4 11 -10z m-15 -20 c8 -5
11 -10 5 -10 -5 0 -17 5 -25 10 -8 5 -10 10 -5 10 6 0 17 -5 25 -10z m723 -10
c-5 -19 -23 -39 -23 -25 0 9 20 45 24 45 2 0 2 -9 -1 -20z m-1572 -23 c-10 -9
-11 -8 -5 6 3 10 9 15 12 12 3 -3 0 -11 -7 -18z m889 8 c0 -8 -4 -15 -10 -15
-5 0 -7 7 -4 15 4 8 8 15 10 15 2 0 4 -7 4 -15z m45 -8 c-14 -8 -15 -11 -4
-18 11 -7 11 -9 1 -9 -8 0 -10 -5 -5 -12 4 -7 8 -19 10 -27 3 -26 26 -30 44
-8 10 12 18 16 19 10 0 -7 -5 -13 -12 -13 -9 0 -9 -3 1 -12 10 -11 16 -8 29
10 17 23 18 22 14 -18 -3 -25 0 -40 7 -40 6 0 11 11 11 24 0 32 20 86 32 86 6
0 7 -8 3 -17 -21 -52 -23 -72 -8 -77 9 -4 11 -11 6 -18 -4 -7 -8 -16 -9 -20
-1 -5 -3 -9 -4 -10 -1 -2 -3 -15 -4 -30 -2 -20 1 -25 12 -20 9 3 13 1 9 -5 -4
-6 1 -10 11 -9 9 0 17 -6 17 -15 0 -9 6 -23 13 -31 10 -12 9 -18 -2 -28 -9 -6
-20 -9 -27 -5 -8 5 -8 1 1 -15 11 -21 25 -20 25 2 0 6 6 13 14 16 9 3 11 0 6
-7 -5 -9 -1 -9 13 0 21 13 21 13 -2 29 -18 12 -23 23 -22 53 1 23 -2 36 -8 33
-6 -2 -10 -9 -8 -15 3 -17 -34 4 -41 23 -4 11 -1 13 10 9 10 -4 14 -2 9 5 -3
6 -2 13 4 17 5 3 10 1 10 -5 0 -6 5 -8 12 -4 7 5 8 3 3 -6 -6 -10 -4 -12 9 -7
10 4 15 3 11 -3 -3 -6 0 -10 7 -10 9 0 9 -3 -2 -10 -11 -7 -11 -10 -2 -10 7 0
11 -4 7 -9 -3 -5 -1 -13 5 -16 8 -5 8 -11 0 -20 -9 -10 -6 -16 10 -25 12 -7
18 -16 13 -23 -14 -22 -11 -36 5 -29 14 5 15 3 5 -9 -14 -18 -24 -65 -15 -74
4 -4 7 -10 7 -13 1 -4 7 -18 14 -32 13 -22 13 -24 -1 -13 -8 7 -19 9 -23 5 -5
-4 -5 -1 -1 6 5 8 2 11 -6 10 -7 -2 -12 4 -10 13 1 9 -6 22 -15 30 -15 11 -16
11 -5 -1 18 -20 15 -29 -8 -25 -11 2 -22 -1 -25 -6 -4 -5 -11 -6 -17 -3 -6 4
-8 2 -5 -4 17 -27 -11 -47 -40 -29 -14 9 -18 -5 -5 -17 4 -4 8 -12 8 -17 1 -5
2 -15 3 -21 1 -8 6 -6 12 5 5 9 7 23 4 30 -4 6 1 3 10 -8 9 -11 20 -20 25 -20
4 0 11 -3 15 -7 9 -8 -16 -5 -32 5 -15 9 -23 -13 -11 -35 5 -10 6 -18 2 -18
-22 0 -110 162 -98 182 5 7 2 9 -9 5 -12 -5 -18 2 -23 28 -3 18 -3 38 0 43 3
5 -2 16 -12 23 -15 13 -16 12 -4 -3 8 -10 9 -19 3 -22 -9 -6 -29 32 -99 184
-14 30 -27 75 -29 100 l-4 45 17 -37 c18 -42 38 -52 28 -14 -4 18 -1 25 15 29
14 3 21 0 21 -9 0 -8 5 -14 11 -14 5 0 7 5 4 11 -8 12 36 58 49 51 5 -3 1 -9
-9 -15z m115 9 c0 -3 -4 -8 -10 -11 -5 -3 -10 -1 -10 4 0 6 5 11 10 11 6 0 10
-2 10 -4z m490 -50 c0 -2 -7 -7 -16 -10 -8 -3 -12 -2 -9 4 6 10 25 14 25 6z
m374 -22 c3 -8 2 -12 -4 -9 -6 3 -10 10 -10 16 0 14 7 11 14 -7z m-1850 -40
c5 -14 4 -15 -9 -4 -17 14 -19 20 -6 20 5 0 12 -7 15 -16z m-4 -119 c0 -5 -5
-3 -10 5 -5 8 -10 20 -10 25 0 6 5 3 10 -5 5 -8 10 -19 10 -25z m55 -166 c-2
-17 -7 -34 -11 -38 -4 -3 -5 1 -2 9 3 8 1 25 -3 38 -6 16 -5 22 6 22 10 0 13
-9 10 -31z m1100 2 c3 -5 0 -13 -6 -16 -5 -4 -8 -14 -4 -22 4 -13 3 -13 -9 -4
-11 10 -14 26 -7 49 2 6 20 1 26 -7z m-1305 -51 c0 -5 -4 -10 -10 -10 -5 0
-10 5 -10 10 0 6 5 10 10 10 6 0 10 -4 10 -10z m204 -25 c3 -8 1 -15 -4 -15
-6 0 -10 7 -10 15 0 8 2 15 4 15 2 0 6 -7 10 -15z m1034 1 c7 -4 11 -13 9 -19
-2 -7 0 -20 5 -30 8 -16 7 -17 -11 -5 -23 14 -27 24 -11 30 6 2 6 8 0 18 -8
13 -10 12 -10 -2 0 -10 -5 -18 -11 -18 -7 0 -5 -10 5 -25 20 -30 21 -46 2 -19
-8 10 -19 20 -25 20 -6 1 -13 2 -16 3 -3 0 1 14 10 30 14 29 28 33 53 17z
m716 -12 c14 -9 7 -10 -34 -8 -29 1 -56 6 -61 11 -12 12 73 9 95 -3z m-1800
-2 c3 -5 -1 -9 -9 -9 -8 0 -12 4 -9 9 3 4 7 8 9 8 2 0 6 -4 9 -8z m1891 -30
c-3 -3 -11 0 -18 7 -9 10 -8 11 6 5 10 -3 15 -9 12 -12z m-762 -9 c-3 -7 -6
-13 -8 -13 -2 0 -5 6 -8 13 -3 8 1 14 8 14 7 0 11 -6 8 -14z m-1173 -21 c0 -3
-9 -20 -21 -38 -19 -32 -39 -37 -39 -11 0 7 4 6 10 -3 9 -13 10 -13 11 0 1 8
1 19 0 23 -1 5 4 5 10 1 8 -5 11 -1 7 13 -3 12 0 20 8 20 8 0 14 -2 14 -5z
m85 -79 c-2 -43 -7 -98 -10 -123 -4 -25 -7 -51 -7 -57 -1 -7 -4 -13 -7 -13 -4
0 -5 46 -3 103 1 62 -1 97 -6 89 -7 -11 -11 -10 -16 4 -4 9 -2 22 4 28 8 8 10
7 5 -4 -4 -11 1 -16 15 -17 11 -1 18 2 15 7 -6 9 4 60 11 60 2 0 2 -35 -1 -77z
m32 30 c-3 -10 -5 -2 -5 17 0 19 2 27 5 18 2 -10 2 -26 0 -35z m-99 -3 c-7
-10 -14 -17 -17 -15 -4 4 18 35 25 35 2 0 -1 -9 -8 -20z m-130 -15 c-3 -3 -9
2 -12 12 -6 14 -5 15 5 6 7 -7 10 -15 7 -18z m125 -37 c-4 -19 -3 -20 6 -8 13
18 15 1 2 -19 -7 -11 -10 -9 -16 8 -3 11 -3 25 0 31 10 16 13 11 8 -12z m-158
-20 c6 -4 2 -8 -7 -8 -10 0 -18 7 -18 17 0 9 3 12 8 7 4 -5 12 -12 17 -16z
m62 -20 c-3 -8 -6 -5 -6 6 -1 11 2 17 5 13 3 -3 4 -12 1 -19z m-17 -43 c1 -18
2 -18 10 3 5 12 15 22 21 22 8 0 9 -4 0 -13 -6 -8 -8 -17 -4 -20 3 -4 1 -7 -5
-7 -7 0 -12 -7 -12 -17 0 -20 -13 -9 -16 14 -2 9 -5 28 -9 42 -4 20 -3 22 5
11 5 -8 10 -24 10 -35z m-53 -17 c-3 -7 -5 -2 -5 12 0 14 2 19 5 13 2 -7 2
-19 0 -25z m163 16 c0 -2 -7 -4 -15 -4 -8 0 -15 4 -15 10 0 5 7 7 15 4 8 -4
15 -8 15 -10z m26 -24 c2 -19 0 -29 -6 -25 -6 3 -10 1 -10 -4 0 -6 -5 -11 -11
-11 -7 0 -5 9 5 24 9 14 13 33 9 43 -3 10 -3 15 2 11 4 -4 9 -21 11 -38z m-56
-29 c0 -32 -6 -24 -14 19 -4 25 -3 31 4 20 5 -8 10 -26 10 -39z m23 24 c-3 -9
-8 -14 -10 -11 -3 3 -2 9 2 15 9 16 15 13 8 -4z m-65 -46 c-3 -8 -7 -3 -11 10
-4 17 -3 21 5 13 5 -5 8 -16 6 -23z m119 -59 c2 -38 -7 -23 -21 34 -6 24 -5
26 6 15 8 -8 14 -30 15 -49z m-184 33 c-5 -12 -2 -15 10 -10 11 4 14 2 10 -9
-5 -13 -8 -13 -24 2 -23 20 -24 34 -4 34 9 0 12 -6 8 -17z m83 -8 c-14 -14
-16 -14 -16 -2 0 9 6 17 13 20 19 7 21 -1 3 -18z m-28 -20 c-3 -3 -9 2 -12 12
-6 14 -5 15 5 6 7 -7 10 -15 7 -18z m98 7 c0 -10 -6 -19 -13 -19 -16 0 -17 9
-1 25 15 15 14 15 14 -6z m-856 -12 c0 -5 -4 -10 -10 -10 -5 0 -10 5 -10 10 0
6 5 10 10 10 6 0 10 -4 10 -10z m813 -5 c-3 -9 -8 -14 -10 -11 -3 3 -2 9 2 15
9 16 15 13 8 -4z m-76 -17 c-3 -8 -6 -5 -6 6 -1 11 2 17 5 13 3 -3 4 -12 1
-19z m35 -10 c4 -27 37 -31 55 -8 25 32 51 12 52 -40 0 -21 -2 -18 -17 15 -12
25 -21 35 -26 27 -4 -6 -2 -21 5 -33 6 -12 15 -34 19 -50 7 -22 5 -27 -6 -22
-8 3 -14 0 -14 -6 0 -6 5 -11 10 -11 6 0 10 -10 10 -22 0 -21 -2 -20 -15 6 -9
16 -30 50 -48 75 -34 47 -52 91 -37 91 5 0 10 -10 12 -22z m2468 -469 c0 -6
-4 -7 -10 -4 -5 3 -10 11 -10 16 0 6 5 7 10 4 6 -3 10 -11 10 -16z m-2220 -19
c0 -5 -2 -10 -4 -10 -3 0 -8 5 -11 10 -3 6 -1 10 4 10 6 0 11 -4 11 -10z m860
-60 c0 -5 -4 -10 -10 -10 -5 0 -10 5 -10 10 0 6 5 10 10 10 6 0 10 -4 10 -10z
m-1850 -61 c0 -5 -4 -9 -10 -9 -5 0 -10 7 -10 16 0 8 5 12 10 9 6 -3 10 -10
10 -16z"/>
<path d="M3740 5842 c0 -136 1 -140 23 -146 99 -26 167 25 167 129 0 98 -41
147 -130 153 l-60 4 0 -140z"/>
<path d="M215 5440 c-19 -8 -19 -9 2 -9 12 -1 25 4 28 9 7 12 -2 12 -30 0z"/>
<path d="M1735 4500 c-23 -38 -45 -208 -26 -195 6 3 7 13 4 23 -6 15 -5 15 11
-1 12 -12 22 -15 29 -8 5 5 15 7 21 5 7 -3 12 20 13 71 2 59 -2 80 -15 95 -19
22 -28 25 -37 10z"/>
<path d="M1187 3489 c7 -7 15 -10 18 -7 3 3 -2 9 -12 12 -14 6 -15 5 -6 -5z"/>
<path d="M1163 3440 c-12 -10 -19 -20 -16 -24 3 -3 12 2 19 12 11 14 15 15 26
3 11 -12 11 -13 -2 -6 -12 6 -12 5 -3 -5 6 -7 16 -9 22 -6 16 10 14 20 -7 32
-14 9 -23 8 -39 -6z"/>
<path d="M2360 2769 c0 -5 5 -7 10 -4 6 3 10 8 10 11 0 2 -4 4 -10 4 -5 0 -10
-5 -10 -11z"/>
<path d="M4152 5033 c-12 -10 -28 -35 -37 -55 l-15 -38 96 0 96 0 -6 28 c-17
71 -86 105 -134 65z"/>
<path d="M4890 5022 c-40 -40 -49 -105 -22 -165 22 -50 45 -67 92 -67 47 0 70
17 92 67 41 93 -7 193 -92 193 -32 0 -48 -6 -70 -28z"/>
<path d="M5515 4921 c-75 -18 -102 -59 -71 -106 23 -34 77 -35 111 0 19 18 25
35 25 70 0 49 -3 51 -65 36z"/>
<path d="M4306 4195 c-8 -9 -19 -16 -23 -16 -4 0 -10 -2 -11 -4 -10 -9 28 3
40 13 8 6 19 8 23 4 5 -4 5 -1 1 6 -9 15 -11 15 -30 -3z"/>
<path d="M1830 1779 c0 -5 5 -7 10 -4 6 3 10 8 10 11 0 2 -4 4 -10 4 -5 0 -10
-5 -10 -11z"/>
<path d="M1850 1230 c0 -5 5 -10 11 -10 5 0 7 5 4 10 -3 6 -8 10 -11 10 -2 0
-4 -4 -4 -10z"/>
<path d="M2516 2015 c-9 -26 -7 -32 5 -12 6 10 9 21 6 23 -2 3 -7 -2 -11 -11z"/>
<path d="M2548 2012 c11 -7 10 -12 -3 -26 -9 -9 -21 -16 -26 -16 -6 0 -7 -5
-3 -11 5 -8 9 -8 14 1 4 7 12 10 17 7 5 -3 10 -1 10 6 0 7 2 18 4 26 2 7 -3
16 -11 18 -12 4 -12 3 -2 -5z"/>
<path d="M2576 1985 c-3 -8 -1 -15 4 -15 13 0 22 18 11 24 -5 3 -11 -1 -15 -9z"/>
<path d="M2501 1931 c-11 -7 -11 -9 0 -14 12 -5 11 -8 -1 -17 -13 -10 -13 -11
0 -7 8 2 16 13 16 25 1 12 1 22 0 22 0 0 -7 -4 -15 -9z"/>
<path d="M2485 1870 c3 -5 1 -10 -4 -10 -6 0 -11 -10 -11 -22 1 -23 1 -23 15
2 17 30 18 40 4 40 -5 0 -7 -4 -4 -10z"/>
<path d="M2554 1859 c0 -10 4 -19 8 -19 4 0 8 6 8 14 0 8 -4 17 -8 20 -4 2 -8
-4 -8 -15z"/>
<path d="M2495 1841 c-3 -5 -1 -12 4 -15 5 -3 11 1 15 9 6 16 -9 21 -19 6z"/>
<path d="M2530 1811 c0 -11 4 -22 9 -25 5 -3 8 5 7 19 -1 29 -16 34 -16 6z"/>
<path d="M2547 1763 c-4 -3 -7 -11 -7 -17 0 -6 5 -5 12 2 6 6 9 14 7 17 -3 3
-9 2 -12 -2z"/>
<path d="M2510 1429 c0 -11 37 -12 43 -1 3 4 -6 8 -19 8 -13 1 -24 -2 -24 -7z"/>
<path d="M2629 1436 c-8 -15 -4 -34 7 -29 9 3 12 -2 9 -16 -2 -12 0 -19 6 -16
5 4 7 11 4 16 -7 11 -3 11 19 3 9 -3 13 -10 10 -15 -3 -5 3 -6 12 -2 13 5 15
3 9 -7 -5 -9 -4 -11 4 -6 6 4 9 11 6 16 -3 4 2 11 11 14 9 4 14 9 11 13 -4 3
-13 1 -20 -6 -19 -15 -46 -4 -42 17 2 12 -4 17 -21 18 -13 1 -24 1 -25 0z"/>
<path d="M2679 1358 c-5 -18 -6 -38 -1 -34 7 8 12 36 6 36 -2 0 -4 -1 -5 -2z"/>
<path d="M2755 1340 c-3 -5 -2 -10 4 -10 5 0 13 5 16 10 3 6 2 10 -4 10 -5 0
-13 -4 -16 -10z"/>
<path d="M2615 1201 c-3 -5 -2 -12 3 -15 5 -3 9 1 9 9 0 17 -3 19 -12 6z"/>
<path d="M2793 1175 c0 -8 4 -12 9 -9 5 3 6 10 3 15 -9 13 -12 11 -12 -6z"/>
<path d="M2706 1068 c3 -5 10 -6 15 -3 13 9 11 12 -6 12 -8 0 -12 -4 -9 -9z"/>
<path d="M1645 610 c-5 -9 11 -32 21 -30 5 1 11 -9 14 -22 5 -19 7 -20 13 -6
3 10 0 24 -9 33 -8 8 -13 19 -10 23 3 5 -2 9 -10 9 -8 0 -17 -3 -19 -7z"/>
</g>
</svg>
